HIERARCHY
ROOT Hips
{
	OFFSET -3.958830 18.904000 13.208200
	CHANNELS 6 Xposition Yposition Zposition Zrotation Yrotation Xrotation 
	JOINT LHipJoint
	{
		OFFSET 0.000000 0.000000 0.000000
		CHANNELS 3 Zrotation Yrotation Xrotation
		JOINT LeftUpLeg
		{
			OFFSET 1.800000 -1.400000 0.085000
			CHANNELS 3 Zrotation Yrotation Xrotation
			JOINT LeftLeg
			{
				OFFSET 2.215000 -6.000000 0.000000
				CHANNELS 3 Zrotation Yrotation Xrotation
				JOINT LeftFoot
				{
					OFFSET 2.500000 -6.900000 0.000000
					CHANNELS 3 Zrotation Yrotation Xrotation
					JOINT LeftToeBase
					{
						OFFSET 0.200000 -0.500000 1.950000
						CHANNELS 3 Zrotation Yrotation Xrotation
						End Site
						{
							OFFSET 0.000000 0.000000 0.000000
						}
					}
				}
			}
		}
	}
	JOINT RHipJoint
	{
		OFFSET 0.000000 0.000000 0.000000
		CHANNELS 3 Zrotation Yrotation Xrotation
		JOINT RightUpLeg
		{
			OFFSET -1.800000 -1.400000 0.085000
			CHANNELS 3 Zrotation Yrotation Xrotation
			JOINT RightLeg
			{
				OFFSET -2.215000 -6.000000 0.000000
				CHANNELS 3 Zrotation Yrotation Xrotation
				JOINT RightFoot
				{
					OFFSET -2.500000 -6.900000 0.000000
					CHANNELS 3 Zrotation Yrotation Xrotation
					JOINT RightToeBase
					{
						OFFSET -0.200000 -0.500000 1.950000
						CHANNELS 3 Zrotation Yrotation Xrotation
						End Site
						{
							OFFSET 0.000000 0.000000 0.000000
						}
					}
				}
			}
		}
	}
	JOINT LowerBack
	{
		OFFSET 0.000000 0.000000 0.000000
		CHANNELS 3 Zrotation Yrotation Xrotation
		JOINT Spine
		{
			OFFSET -0.087000 1.940000 -0.288900
			CHANNELS 3 Zrotation Yrotation Xrotation
			JOINT Spine1
			{
				OFFSET 0.000000 1.950000 0.060000
				CHANNELS 3 Zrotation Yrotation Xrotation
				JOINT Neck
				{
					OFFSET 0.000000 0.000000 0.000000
					CHANNELS 3 Zrotation Yrotation Xrotation
					JOINT Neck1
					{
						OFFSET 0.000000 1.600000 0.340000
						CHANNELS 3 Zrotation Yrotation Xrotation
						JOINT Head
						{
							OFFSET 0.000000 1.667000 -0.240000
							CHANNELS 3 Zrotation Yrotation Xrotation
							End Site
							{
								OFFSET 0.000000 0.000000 0.000000
							}
						}
					}
				}
				JOINT LeftShoulder
				{
					OFFSET 0.000000 0.000000 0.000000
					CHANNELS 3 Zrotation Yrotation Xrotation
					JOINT LeftArm
					{
						OFFSET 2.700000 1.550000 -0.730000
						CHANNELS 3 Zrotation Yrotation Xrotation
						JOINT LeftForeArm
						{
							OFFSET 5.450000 0.000000 0.000000
							CHANNELS 3 Zrotation Yrotation Xrotation
							JOINT LeftHand
							{
								OFFSET 3.450000 0.000000 0.000000
								CHANNELS 3 Zrotation Yrotation Xrotation
								JOINT LeftHandIndex1
								{
									OFFSET 0.750000 0.000000 0.000000
									CHANNELS 3 Zrotation Yrotation Xrotation
									End Site
									{
										OFFSET 0.000000 0.000000 0.000000
									}
								}
							}
						}
					}
				}
				JOINT RightShoulder
				{
					OFFSET 0.000000 0.000000 0.000000
					CHANNELS 3 Zrotation Yrotation Xrotation
					JOINT RightArm
					{
						OFFSET -2.700000 1.550000 -0.730000
						CHANNELS 3 Zrotation Yrotation Xrotation
						JOINT RightForeArm
						{
							OFFSET -5.450000 0.000000 0.000000
							CHANNELS 3 Zrotation Yrotation Xrotation
							JOINT RightHand
							{
								OFFSET -3.450000 0.000000 0.000000
								CHANNELS 3 Zrotation Yrotation Xrotation
								JOINT RightHandIndex1
								{
									OFFSET -0.750000 0.000000 0.000000
									CHANNELS 3 Zrotation Yrotation Xrotation
									End Site
									{
										OFFSET 0.000000 0.000000 0.000000
									}
								}
							}
						}
					}
				}
			}
		}
	}
}
MOTION
Frames: 10
Frame Time: 0.016667
-0.163660 17.771320 -2.682240 -0.786241 -1.746776 -2.880046 -14.485105 11.403065 3.508952 8.741186 -3.521120 -30.434713 -9.109723 4.517824 10.791164 -1.196015 3.501103 3.352675 1.088920 0.784720 0.683900 19.057461 -11.891743 2.632470 3.584142 3.448983 -15.422773 -6.769104 -3.103793 35.377753 -0.750099 -5.160333 2.532197 0.669470 0.330740 0.316260 -5.674595 2.379289 -7.615241 26.067840 -4.377985 24.663892 -17.604661 3.901033 17.919201 1.118889 -3.357742 -6.933217 -7.107983 -5.338438 29.702204 1.784070 -8.264560 -20.802680 16.282306 -28.320160 -3.185094 43.763539 -46.937908 -23.617898 34.902543 -12.354121 -7.055454 -3.955854 3.115731 0.543480 0.123730 0.018320 0.434620 -19.647144 28.119093 2.101503 -25.207098 20.491201 -13.400252 -46.412943 25.924009 -11.623950 2.139842 -2.106182 -0.176280 0.504140 -0.197690 -0.148480 
-0.157130 17.818990 -2.670780 -0.021649 -2.156890 -2.812195 -14.545546 11.465046 3.533196 8.627046 -4.022583 -31.118012 -9.761420 6.034785 17.674474 -1.110331 4.274546 3.051421 1.079020 0.749520 0.670410 19.022300 -11.648969 2.810015 4.841223 4.746742 -18.538480 -9.450168 -2.021052 39.970198 -0.834914 -5.628799 2.361107 0.657130 0.344440 0.321170 -5.542227 1.987468 -7.636638 24.934483 -3.718121 24.883953 -17.246996 4.253315 18.063527 1.103595 -3.643564 -6.662852 -7.904539 -5.567944 29.842273 2.101280 -8.992090 -20.359140 12.261935 -27.657129 -2.639848 35.333040 -51.394205 -21.806667 46.958542 -20.050153 -11.885800 -3.905593 3.083683 0.542840 0.126950 -0.008300 0.438830 -15.901329 27.423437 3.195562 -19.904901 19.997771 -13.694099 -64.465079 34.179400 -21.672345 1.920630 -2.004413 -0.187350 0.490410 -0.188890 -0.152710 
-0.150170 17.869460 -2.652550 0.651753 -0.594815 -3.407141 -14.585699 11.510080 3.447606 7.258762 -4.597621 -30.891667 -8.631651 7.185068 24.497991 -0.973999 5.048277 2.765800 1.000370 0.633450 0.626150 19.017361 -11.379228 3.057111 5.323611 6.415081 -22.101415 -10.406280 -1.878264 46.887035 -1.021438 -6.526641 2.072353 0.565570 0.351090 0.323640 -5.494410 1.664430 -7.715877 24.819510 -4.429725 25.679638 -18.316056 3.589576 18.217744 1.348953 -4.313754 -7.088093 -9.834647 -5.583209 31.169805 3.002740 -9.890260 -21.021870 9.584452 -27.051933 -2.018548 23.131127 -53.426883 -15.850841 60.632664 -30.019547 -20.085505 -3.863827 2.871055 0.584060 0.103950 -0.010880 0.412840 -13.791319 26.824453 4.371984 -13.106835 19.539939 -13.297197 -83.040828 37.752472 -34.454149 1.747549 -1.798360 -0.198160 0.485230 -0.140900 -0.158790 
-0.144570 17.917380 -2.624730 0.827037 3.088970 -4.879265 -14.624764 11.508174 3.258792 5.508531 -5.083219 -29.665860 -6.286276 7.785510 31.081452 -0.833305 5.817573 2.479237 0.996800 0.644970 0.587540 19.033996 -11.103900 3.303621 5.299374 7.905603 -25.242008 -9.209312 -3.285433 55.142016 -1.309269 -7.829450 1.669101 0.561480 0.358410 0.317940 -5.498465 1.430210 -7.774210 25.393616 -5.782942 26.333076 -18.953879 2.182637 19.536608 1.406017 -4.390403 -7.070750 -10.522449 -5.647063 31.816603 4.428580 -10.637310 -22.033600 7.808782 -26.470455 -2.081884 10.050994 -55.932589 -8.540824 73.592364 -37.986900 -30.594001 -3.831016 2.634356 0.585690 0.093770 -0.013420 0.418240 -12.005276 25.332981 5.587361 -5.792479 19.977061 -11.960305 -99.793735 37.190411 -48.607334 1.599098 -1.757395 -0.186360 0.495040 -0.125930 -0.142890 
-0.153850 17.918990 -2.595810 1.136910 7.969776 -5.894662 -14.713064 11.497574 3.150248 3.852108 -5.716183 -28.840491 -3.844729 8.001858 36.815896 -0.635770 6.555654 2.234125 0.972300 0.616330 0.551100 19.015840 -10.649068 3.584413 4.466498 9.352901 -29.592855 -7.274432 -6.077178 64.529418 -1.675581 -9.457530 1.201242 0.524560 0.357470 0.299750 -5.398438 0.869880 -7.938217 24.658438 -7.168064 26.563001 -18.935018 0.409619 19.897029 1.511905 -4.292138 -7.198558 -11.182211 -5.444232 33.136359 5.720380 -11.158210 -22.036720 5.228299 -26.121407 -2.429232 -6.825515 -57.167018 3.090126 85.811578 -45.347311 -43.799478 -3.742519 2.306212 0.588810 0.076700 -0.021900 0.431240 -9.455557 24.112813 7.139151 1.866927 20.790904 -9.722309 -113.897191 36.467355 -64.115218 1.525818 -1.793172 -0.182580 0.481890 -0.132600 -0.132570 
-0.178230 17.913290 -2.589350 1.182628 14.212023 -7.813228 -14.813538 11.666179 2.959903 2.191157 -6.167730 -26.671400 -0.132285 6.961616 40.737607 -0.435501 6.816951 2.157964 0.959680 0.611400 0.556940 18.944809 -10.303862 3.815181 3.061828 9.733574 -33.408604 -5.075280 -10.532710 73.939176 -2.157860 -11.255541 0.714578 0.451930 0.288340 0.299970 -5.251308 0.189274 -8.103052 23.188569 -9.426378 28.473473 -18.169798 -2.047313 20.292776 1.981683 -4.328867 -7.784122 -11.993868 -4.833373 34.784393 7.059480 -10.854670 -24.348120 1.862007 -26.394693 -1.810587 -21.141425 -55.740382 12.722069 98.783697 -50.462440 -61.107907 -3.626750 2.010731 0.623210 0.006820 0.045770 0.429130 -6.516247 23.558729 8.658683 8.526681 20.473095 -8.201202 -127.676385 35.863338 -83.340627 1.556780 -1.844850 -0.129270 0.435610 -0.169850 -0.118320 
-0.203360 17.875830 -2.575190 0.820633 18.453526 -9.554126 -14.887928 11.764430 2.700470 1.487879 -6.166530 -24.389741 3.153476 5.881238 43.484315 -0.323747 7.064512 2.088681 0.939430 0.580050 0.547850 18.903859 -9.951765 4.158379 2.107097 10.602600 -37.232942 -3.438594 -15.334738 83.230126 -2.663108 -13.118644 0.252805 0.407110 0.253150 0.280240 -5.167103 -0.259972 -8.282980 21.994032 -11.201706 30.518735 -17.485752 -3.745727 20.884001 2.663578 -4.846186 -8.725832 -13.035188 -3.560413 35.850660 8.773370 -10.403860 -26.333540 -2.585726 -25.629965 0.453430 -30.201304 -53.853550 17.112760 111.602516 -55.559793 -84.449536 -3.640859 2.106721 0.678980 -0.051040 0.074390 0.422030 -2.833020 22.939752 8.909807 14.046501 21.502216 -6.522899 -138.312079 36.504503 -103.408990 1.591357 -1.843145 -0.131790 0.426790 -0.176030 -0.123510 
-0.222100 17.809950 -2.541070 -0.369575 21.833521 -11.682825 -14.929447 11.945173 2.266565 2.014550 -5.398634 -21.382452 6.223740 4.558089 43.556878 -0.229043 6.899880 2.176244 0.959580 0.598080 0.546240 18.881674 -9.683303 4.519605 1.951879 11.641415 -40.142929 -2.446086 -20.503474 92.272453 -3.202289 -14.985607 -0.153456 0.374350 0.217200 0.283380 -5.169201 -0.585267 -8.352382 22.074431 -13.185258 32.132329 -17.224912 -5.588458 21.157587 3.234929 -5.974924 -9.750112 -15.029423 -2.129254 36.110172 9.920610 -10.350780 -26.556060 -7.152183 -24.954818 2.742552 -35.131963 -49.705177 14.671431 129.923343 -61.909269 -118.597774 -3.535963 2.996724 0.679410 -0.100730 0.107360 0.454220 1.052688 23.102778 9.044298 19.450598 21.856381 -5.338848 -146.927905 37.884295 -124.128458 1.659986 -1.910893 -0.083500 0.381290 -0.229460 -0.091240 
-0.222810 17.702890 -2.484080 -2.563954 23.767804 -13.657224 -14.908875 12.017106 1.758886 4.295753 -4.348544 -18.643928 7.761287 4.054992 42.526376 -0.209482 6.766878 2.261602 0.897090 0.513760 0.500440 18.923552 -9.461930 4.934193 2.532286 13.462371 -42.674263 -1.156591 -26.697070 100.496117 -3.724894 -16.874541 -0.506005 0.310810 0.238700 0.258290 -5.332015 -0.549269 -8.412975 24.399583 -15.306778 33.000674 -18.299056 -7.093503 19.652655 3.879294 -7.154576 -10.055436 -17.073027 -0.864910 36.152838 10.828760 -10.702540 -26.194230 -13.269868 -24.160959 3.468032 -38.126125 -43.537981 9.179541 160.731994 -66.806265 -164.351156 -3.259053 3.364121 0.689560 -0.119460 0.088250 0.452450 6.006677 23.076060 9.226027 23.960582 20.983721 -4.573466 -154.809667 38.931034 -143.220213 1.728550 -1.906369 -0.100560 0.389250 -0.214470 -0.077180 
-0.232060 17.570050 -2.446870 -4.809909 24.940572 -15.318683 -14.909169 12.036631 1.422828 7.253582 -3.832495 -17.188526 7.904933 4.280254 42.231798 -0.183072 6.838975 2.253125 0.854360 0.449740 0.480930 18.931209 -9.187614 5.280153 2.475038 15.059226 -45.516818 -0.025222 -33.944457 108.040238 -4.285109 -18.891629 -0.855243 0.263430 0.243740 0.256830 -5.378511 -0.627994 -8.530437 26.144331 -16.789939 34.032539 -18.665296 -7.955081 17.686989 4.356274 -7.386045 -9.967641 -17.307756 -0.473827 36.237796 10.628050 -10.516920 -25.516650 -18.399454 -23.196405 3.335297 -38.909863 -38.361756 5.755801 -179.189932 -65.431224 166.029856 -3.231679 3.289885 0.703120 -0.126750 0.084190 0.449700 10.092411 22.366088 9.559192 28.710049 18.496516 -4.701768 -160.800687 39.504076 -158.634897 1.798309 -1.916509 -0.111870 0.375490 -0.208360 -0.077370 
